<mxfile host="65bd71144e">
    <diagram id="TzZMUonu0IDne00ySSl8" name="Page-1">
        <mxGraphModel dx="1118" dy="414" grid="1" gridSize="10" guides="1" tooltips="1" connect="1" arrows="1" fold="1" page="1" pageScale="1" pageWidth="827" pageHeight="1169" math="0" shadow="0">
            <root>
                <mxCell id="0"/>
                <mxCell id="1" parent="0"/>
                <mxCell id="kllJaaGimL30p1iQRSzy-1" value="" style="sketch=0;pointerEvents=1;shadow=0;dashed=0;html=1;strokeColor=none;fillColor=#434445;aspect=fixed;labelPosition=center;verticalLabelPosition=bottom;verticalAlign=top;align=center;outlineConnect=0;shape=mxgraph.vvd.nsx_edge_and_load_balancer;" parent="1" vertex="1">
                    <mxGeometry x="380" y="340" width="50" height="40.5" as="geometry"/>
                </mxCell>
                <mxCell id="kllJaaGimL30p1iQRSzy-3" value="" style="sketch=0;pointerEvents=1;shadow=0;dashed=0;html=1;strokeColor=none;fillColor=#434445;aspect=fixed;labelPosition=center;verticalLabelPosition=bottom;verticalAlign=top;align=center;outlineConnect=0;shape=mxgraph.vvd.server;" parent="1" vertex="1">
                    <mxGeometry x="540" y="230" width="115.38" height="30" as="geometry"/>
                </mxCell>
                <mxCell id="kllJaaGimL30p1iQRSzy-6" value="" style="rounded=1;whiteSpace=wrap;html=1;" parent="1" vertex="1">
                    <mxGeometry x="50" y="540" width="120" height="60" as="geometry"/>
                </mxCell>
                <mxCell id="kllJaaGimL30p1iQRSzy-7" value="" style="endArrow=none;html=1;rounded=0;exitX=0.5;exitY=0;exitDx=0;exitDy=0;" parent="1" source="kllJaaGimL30p1iQRSzy-6" edge="1">
                    <mxGeometry width="50" height="50" relative="1" as="geometry">
                        <mxPoint x="390" y="420" as="sourcePoint"/>
                        <mxPoint x="200" y="360.1969365426696" as="targetPoint"/>
                        <Array as="points">
                            <mxPoint x="110" y="360"/>
                        </Array>
                    </mxGeometry>
                </mxCell>
                <mxCell id="kllJaaGimL30p1iQRSzy-8" value="" style="endArrow=none;html=1;rounded=0;" parent="1" target="kllJaaGimL30p1iQRSzy-1" edge="1">
                    <mxGeometry width="50" height="50" relative="1" as="geometry">
                        <mxPoint x="248.5" y="360.25" as="sourcePoint"/>
                        <mxPoint x="440" y="370" as="targetPoint"/>
                    </mxGeometry>
                </mxCell>
                <mxCell id="kllJaaGimL30p1iQRSzy-9" value="" style="endArrow=none;html=1;rounded=0;" parent="1" source="kllJaaGimL30p1iQRSzy-1" target="kllJaaGimL30p1iQRSzy-3" edge="1">
                    <mxGeometry width="50" height="50" relative="1" as="geometry">
                        <mxPoint x="390" y="420" as="sourcePoint"/>
                        <mxPoint x="520" y="240" as="targetPoint"/>
                    </mxGeometry>
                </mxCell>
                <mxCell id="kllJaaGimL30p1iQRSzy-10" value="" style="sketch=0;pointerEvents=1;shadow=0;dashed=0;html=1;strokeColor=none;fillColor=#434445;aspect=fixed;labelPosition=center;verticalLabelPosition=bottom;verticalAlign=top;align=center;outlineConnect=0;shape=mxgraph.vvd.server;" parent="1" vertex="1">
                    <mxGeometry x="540" y="355.25" width="115.38" height="30" as="geometry"/>
                </mxCell>
                <mxCell id="kllJaaGimL30p1iQRSzy-11" value="" style="sketch=0;pointerEvents=1;shadow=0;dashed=0;html=1;strokeColor=none;fillColor=#434445;aspect=fixed;labelPosition=center;verticalLabelPosition=bottom;verticalAlign=top;align=center;outlineConnect=0;shape=mxgraph.vvd.server;" parent="1" vertex="1">
                    <mxGeometry x="540" y="490" width="115.38" height="30" as="geometry"/>
                </mxCell>
                <mxCell id="kllJaaGimL30p1iQRSzy-12" value="" style="endArrow=none;html=1;rounded=0;" parent="1" source="kllJaaGimL30p1iQRSzy-1" target="kllJaaGimL30p1iQRSzy-10" edge="1">
                    <mxGeometry width="50" height="50" relative="1" as="geometry">
                        <mxPoint x="390" y="420" as="sourcePoint"/>
                        <mxPoint x="440" y="370" as="targetPoint"/>
                    </mxGeometry>
                </mxCell>
                <mxCell id="kllJaaGimL30p1iQRSzy-13" value="" style="endArrow=none;html=1;rounded=0;" parent="1" source="kllJaaGimL30p1iQRSzy-1" target="kllJaaGimL30p1iQRSzy-11" edge="1">
                    <mxGeometry width="50" height="50" relative="1" as="geometry">
                        <mxPoint x="390" y="420" as="sourcePoint"/>
                        <mxPoint x="440" y="370" as="targetPoint"/>
                    </mxGeometry>
                </mxCell>
                <mxCell id="2" value="" style="sketch=0;pointerEvents=1;shadow=0;dashed=0;html=1;strokeColor=none;aspect=fixed;labelPosition=center;verticalLabelPosition=bottom;verticalAlign=top;align=center;outlineConnect=0;shape=mxgraph.vvd.cloud_computing;fillColor=#066A90;" vertex="1" parent="1">
                    <mxGeometry x="200" y="344" width="50" height="32" as="geometry"/>
                </mxCell>
            </root>
        </mxGraphModel>
    </diagram>
</mxfile>